<?xml version="1.0" encoding="utf-8"?>
<!-- Generator: Adobe Illustrator 23.0.0, SVG Export Plug-In . SVG Version: 6.00 Build 0)  -->
<svg version="1.1" id="Layer_1" xmlns="http://www.w3.org/2000/svg" xmlns:xlink="http://www.w3.org/1999/xlink" x="0px" y="0px"
	 viewBox="0 0 4000 900" style="enable-background:new 0 0 4000 900;" xml:space="preserve">
<style type="text/css">
	.st0{fill:none;}
	.st1{fill:#E6E6E6;}
	.st2{fill:#B3B3B3;}
	.st3{fill:#FA1616;}
</style>
<g>
	<rect y="0.77" class="st0" width="4000" height="898.45"/>
	<g>
		<g>
			<g>
				<path class="st1" d="M1360.21,245.39v234.99h-41.96V330.65l-41.29,31.56l-34.24,26.52l-34.24-26.52l-41.29-31.56v149.72h-41.96
					V245.39l41.96,32.23l75.53,58.08l75.53-58.08L1360.21,245.39z"/>
				<path class="st1" d="M1625.4,245.39v117.49c0,64.79-52.7,117.49-117.49,117.49s-117.49-52.7-117.49-117.49V245.39h41.96v117.49
					c0,41.63,33.9,75.53,75.53,75.53s75.53-33.9,75.53-75.53V245.39H1625.4z"/>
				<path class="st1" d="M1856.02,480.37h-47l-21.48-41.96l-51.36-100.71l-51.36,100.71l-21.48,41.96h-47l21.48-41.96l98.36-193.02
					l98.36,193.02L1856.02,480.37z"/>
				<path class="st1" d="M2108.79,438.41v41.96h-181.61l-0.34,0.34h-53.04l0.34-0.34l32.23-41.96l57.74-74.86l26.52-34.24
					l32.23-41.63h-149.38v-41.96h181.61h52.7l-32.56,41.96l-58.41,75.87l-26.52,34.24l-31.56,40.62H2108.79z"/>
				<path class="st1" d="M2478.38,310.51v-1.34c0-11.75-9.74-21.48-21.48-21.48h-95.34c-11.75,0-21.48,9.73-21.48,21.48v1.34
					c0,11.75,9.74,21.48,21.48,21.48h84.59c21.82,0,41.29,9.4,54.72,24.17c1.01,1.01,1.68,2.01,2.69,3.02
					c10.41,12.76,16.79,29.21,16.79,47c0,40.96-33.23,74.19-74.19,74.19h-73.52c-40.96,0-74.19-33.23-74.19-74.19h41.96
					c0,17.79,14.43,32.23,32.23,32.23h73.52c17.79,0,32.56-14.43,32.56-32.23c0-17.79-14.77-32.23-32.56-32.23h-84.59
					c-17.12,0-32.56-6.71-43.98-17.79c-3.02-3.02-5.71-6.38-8.06-10.07c-7.05-10.07-11.08-22.49-11.08-35.92v-1.34
					c0-34.91,28.2-63.45,63.11-63.45h95.34c34.91,0,63.45,28.53,63.45,63.45v1.34L2478.38,310.51z"/>
				<path class="st1" d="M2531.75,480.37h0.67l-0.67,0.67V480.37z M2766.74,245.05l-90.97,117.83l-5.04,6.38v110.78h-41.96V369.93
					l-5.71-7.05l-90.97-117.83h53.04l64.45,83.59l64.45-83.59H2766.74z M2766.4,480.37h0.34v0.67L2766.4,480.37z"/>
				<path class="st1" d="M2972.18,480.37h-47l-21.48-41.96l-51.36-100.71l-51.36,100.71l-21.48,41.96h-47l21.48-41.96l98.36-193.02
					l98.36,193.02L2972.18,480.37z"/>
				<path class="st1" d="M3223.94,245.39v234.99h-41.96V372.61h-151.06v107.76h-41.96V245.39h41.96v85.27h151.06v-85.27H3223.94z"/>
				<path class="st1" d="M3443.81,439.08l21.48,41.96h-47l-21.48-41.96l-22.49-43.98l-1.01-2.01
					c-7.39-12.08-20.48-20.14-35.58-20.14h-41.96v108.09h-41.96V246.06h148.38c17.46,0,33.23,7.05,44.65,18.46
					c11.41,11.41,18.46,27.19,18.46,44.65c0,25.51-15.11,47.67-36.93,57.74c-5.71,2.69-11.75,4.36-18.13,5.04L3443.81,439.08z
					 M3402.19,330.99c3.02,0,6.04-0.67,8.73-2.01c7.72-3.36,12.76-11.08,12.76-19.47c0-7.72-4.03-13.09-6.38-15.44
					c-2.69-2.69-7.72-6.04-15.11-6.04h-106.41v43.3L3402.19,330.99z"/>
				<path class="st1" d="M3730.83,245.39v117.49c0,64.79-52.7,117.49-117.49,117.49s-117.49-52.7-117.49-117.49V245.39h41.96v117.49
					c0,41.63,33.91,75.53,75.53,75.53s75.53-33.9,75.53-75.53V245.39H3730.83z"/>
				<path class="st1" d="M3954.73,438.75v41.96h-119.17c-11.75,0-22.83-2.69-32.9-7.72c-14.77-7.38-26.86-19.47-33.9-34.24
					c-5.04-10.07-7.72-21.15-7.72-32.9V245.72h41.96v164.15c2.01,14.77,13.76,26.52,28.53,28.53L3954.73,438.75z"/>
			</g>
			<g>
				<path class="st2" d="M1646.14,548.45v124.07h-21.54v-79.05l-21.19,16.66l-17.57,14l-17.57-14l-21.19-16.66v79.05h-21.54V548.45
					l21.54,17.02l38.77,30.66l38.77-30.66L1646.14,548.45z"/>
				<path class="st2" d="M1831.19,672.52h-24.12l-11.03-22.16l-26.36-53.17l-26.36,53.17l-11.03,22.16h-24.12l11.03-22.16
					l50.48-101.92l50.48,101.92L1831.19,672.52z"/>
				<path class="st2" d="M1961.1,598.26l52.21,74.27h-26.53l-41.7-59.2l-30.5,28.54v30.66h-21.54V548.45h21.54v63.45l17.75-16.66
					l16.02-15.07l33.6-31.73h31.88L1961.1,598.26z"/>
				<path class="st2" d="M2093.94,581.95v11.52h77.54v22.16h-77.54v23.4c0,6.2,5,11.34,11.03,11.34h88.05v22.16h-88.05
					c-17.92,0-32.39-15.07-32.39-33.5v-57.07c0-18.43,14.47-33.5,32.39-33.5h88.05v22.16h-88.05
					C2098.93,570.61,2093.94,575.75,2093.94,581.95z"/>
				<path class="st2" d="M2397.53,672.52V548.45h21.54v124.07H2397.53z"/>
				<path class="st2" d="M2608.42,548.63v22.16h-49.45V672.7h-21.54V570.79h-49.45v-22.16H2608.42z"/>
				<path class="st2" d="M2936.13,645.76l-7.75,26.76l-15.85-22.69l-23.95-33.85l-23.78,33.85l-15.85,22.51l-7.75-26.59
					l-28.08-97.31h22.4l21.71,74.8l18.26-26.06l3.45-4.96l9.82-13.82l9.82,13.82l3.45,4.96l18.26,26.06l21.71-74.8h22.4
					L2936.13,645.76z"/>
				<path class="st2" d="M3136.52,610.49c0,34.21-27.05,62.04-60.31,62.04c-33.25,0-60.31-27.83-60.31-62.04
					s27.05-62.04,60.31-62.04C3109.46,548.45,3136.52,576.28,3136.52,610.49z M3114.98,610.49c0-21.98-17.4-39.88-38.77-39.88
					c-21.37,0-38.77,17.9-38.77,39.88s17.4,39.88,38.77,39.88C3097.58,650.37,3114.98,632.47,3114.98,610.49z"/>
				<path class="st2" d="M3298.65,650.72l11.03,22.16h-24.12l-11.03-22.16l-11.54-23.22l-0.52-1.06
					c-3.79-6.38-10.51-10.63-18.26-10.63h-21.54v57.07h-21.54V548.81h76.16c8.96,0,17.06,3.72,22.92,9.75
					c5.86,6.03,9.48,14.36,9.48,23.57c0,13.47-7.75,25.17-18.95,30.49c-2.93,1.42-6.03,2.3-9.3,2.66L3298.65,650.72z
					 M3277.28,593.65c1.55,0,3.1-0.35,4.48-1.06c3.96-1.77,6.55-5.85,6.55-10.28c0-4.08-2.07-6.91-3.27-8.15
					c-1.38-1.42-3.96-3.19-7.75-3.19h-54.62v22.87L3277.28,593.65z"/>
				<path class="st2" d="M3446.65,598.26l52.21,74.27h-26.54l-41.7-59.2l-30.5,28.54v30.66h-21.54V548.45h21.54v63.45l17.75-16.66
					l16.02-15.07l33.6-31.73h31.88L3446.65,598.26z"/>
			</g>
		</g>
		<g>
			<polygon class="st3" points="173.88,711.9 31.85,711.9 425.64,141.96 567.67,141.96 			"/>
			<polygon class="st3" points="676.53,758.04 534.51,758.04 928.3,188.1 1070.32,188.1 			"/>
			<polygon class="st3" points="580.85,509.07 437.49,509.07 608.55,261.39 751.92,261.39 			"/>
		</g>
	</g>
</g>
</svg>
